<?xml version="1.0" standalone="no"?>
<!DOCTYPE svg PUBLIC "-//W3C//DTD SVG 20010904//EN"
 "http://www.w3.org/TR/2001/REC-SVG-20010904/DTD/svg10.dtd">
<svg version="1.0" xmlns="http://www.w3.org/2000/svg"
 width="200.000000pt" height="200.000000pt" viewBox="0 0 200.000000 200.000000"
 preserveAspectRatio="xMidYMid meet">

<g transform="translate(0.000000,200.000000) scale(0.100000,-0.100000)"
fill="#a83256" stroke="none">
<path d="M649 1916 c-158 -61 -267 -192 -277 -336 -4 -55 -5 -57 -50 -81 -171
-90 -275 -297 -244 -484 32 -193 176 -343 374 -390 77 -18 394 -21 431 -4 43
20 47 45 47 312 l1 252 64 -67 c36 -38 71 -68 78 -68 13 0 87 70 87 83 0 14
-284 312 -300 315 -19 3 -293 -289 -298 -318 -3 -18 62 -80 84 -80 7 0 42 32
78 71 l66 71 0 -212 0 -212 -157 4 c-145 3 -163 6 -214 29 -141 66 -216 220
-176 360 32 108 114 194 212 220 85 23 80 14 80 132 0 101 1 107 30 148 17 24
50 57 73 74 37 25 55 30 116 33 62 4 80 0 123 -21 57 -29 90 -64 117 -124 10
-23 25 -44 32 -47 8 -3 37 8 65 25 209 129 482 73 614 -127 128 -193 89 -455
-87 -595 -103 -82 -198 -109 -384 -109 -165 0 -158 10 -164 -226 l-5 -188 -60
67 c-33 37 -67 67 -75 67 -17 0 -90 -64 -90 -79 0 -15 289 -321 303 -321 15 0
291 297 295 317 5 18 -56 83 -77 83 -9 0 -46 -30 -83 -67 l-68 -67 0 125 0
126 113 6 c194 10 315 62 442 191 124 124 175 248 175 419 0 171 -56 305 -179
428 -86 86 -199 149 -308 170 -85 16 -234 7 -307 -18 l-58 -21 -42 41 c-22 22
-70 54 -106 71 -56 26 -78 31 -160 33 -62 2 -107 -2 -131 -11z"/>
</g>
</svg>
