<?xml version="1.0" standalone="no"?>
<!DOCTYPE svg PUBLIC "-//W3C//DTD SVG 20010904//EN"
 "http://www.w3.org/TR/2001/REC-SVG-20010904/DTD/svg10.dtd">
<svg version="1.0" xmlns="http://www.w3.org/2000/svg"
 width="600.000000pt" height="600.000000pt" viewBox="0 0 512.000000 512.000000"
 preserveAspectRatio="xMidYMid meet">

<g transform="translate(0.000000,512.000000) scale(0.100000,-0.100000)"
fill="#a83256" stroke="none">
<path d="M3882 4697 c-55 -31 -57 -40 -62 -342 l-5 -280 -280 -5 c-154 -3
-288 -9 -297 -13 -10 -5 -27 -25 -39 -44 -31 -49 -22 -114 20 -157 l31 -31
285 -3 284 -3 3 -284 3 -285 31 -31 c43 -42 108 -51 157 -20 19 12 39 29 44
39 4 9 10 143 13 297 l5 280 280 5 c246 4 283 7 306 23 34 23 49 58 49 114 0
39 -5 50 -36 79 l-35 34 -282 2 -282 3 -3 282 -2 283 -35 35 c-31 30 -42 35
-83 35 -26 -1 -57 -6 -70 -13z"/>
<path d="M1191 4055 c-91 -20 -156 -43 -236 -83 -251 -125 -426 -333 -512
-609 l-28 -88 0 -1035 0 -1035 28 -88 c104 -333 341 -570 674 -674 l88 -28
1035 0 1035 0 88 28 c333 104 571 342 674 674 l28 88 3 638 3 638 -34 34 c-41
41 -90 52 -140 32 -75 -32 -71 1 -77 -677 -7 -675 -4 -652 -80 -805 -73 -148
-186 -260 -335 -331 -152 -73 -91 -69 -1165 -69 -1074 0 -1013 -4 -1165 69
-149 71 -262 183 -335 331 -79 160 -75 93 -75 1175 0 1074 -4 1013 69 1165 71
149 183 262 331 335 153 76 130 73 805 80 678 6 645 2 677 77 20 50 9 99 -32
140 l-33 33 -614 -1 c-483 0 -627 -4 -677 -14z"/>
</g>
</svg>
