<svg height="480pt" viewBox="0 0 480.42119 480" width="480pt" xmlns="http://www.w3.org/2000/svg"><g fill="#a83256"><path d="m152.398438 303.679688c0 17.675781-14.324219 32-32 32-17.671876 0-32-14.324219-32-32 0-17.671876 14.328124-32 32-32 17.675781 0 32 14.328124 32 32zm0 0"/><path d="m177.601562 427.082031 6.796876-3.402343v-32c0-26.5-21.5-48-48-48h-32c-26.5 0-48 21.5-48 48v32l6.800781 3.402343c36 18 78.402343 18 114.402343 0zm0 0"/><path d="m197 105.382812 3.398438-1.703124v-16c0-8.796876-7.199219-16-16-16h-32c-8.796876 0-16 7.203124-16 16v16l3.402343 1.703124c18 9 39.199219 9 57.199219 0zm0 0"/><path d="m184.398438 47.679688c0 8.839843-7.160157 16-16 16-8.835938 0-16-7.160157-16-16 0-8.835938 7.164062-16 16-16 8.839843 0 16 7.164062 16 16zm0 0"/><path d="m416.398438 207.679688c0 13.257812-10.742188 24-24 24-13.253907 0-24-10.742188-24-24 0-13.253907 10.746093-24 24-24 13.257812 0 24 10.746093 24 24zm0 0"/><path d="m408.398438 239.679688h-32c-17.699219 0-32 14.300781-32 32v8l17.601562 5.902343c19.699219 6.597657 41 6.597657 60.699219 0l17.699219-5.902343v-8c0-17.699219-14.296876-32-32-32zm0 0"/></g><path d="m143.5 336.179688c18-12.796876 22.300781-37.699219 9.5-55.796876-12.800781-18-37.699219-22.300781-55.800781-9.5-18 12.796876-22.300781 37.699219-9.5 55.796876 2.601562 3.703124 5.800781 6.902343 9.5 9.5-27.800781 3.601562-48.699219 27.402343-48.800781 55.5v36.902343l11.203124 5.597657c38.296876 19.101562 83.296876 19.101562 121.597657 0l11.199219-5.597657v-36.902343c0-28.199219-20.898438-51.898438-48.898438-55.5zm-23.101562-56.5c13.300781 0 24 10.703124 24 24 0 13.300781-10.699219 24-24 24-13.296876 0-24-10.699219-24-24 0-13.296876 10.703124-24 24-24zm56 139.101562-2.296876 1.199219c-33.800781 16.800781-73.5 16.800781-107.300781 0l-2.300781-1.199219v-27.101562c0-22.097657 17.898438-40 40-40h32c22.101562 0 40 17.902343 40 40v27.101562zm0 0" fill="#a83256"/><path d="m186 63.882812c9-9.703124 8.398438-24.902343-1.300781-33.902343s-24.898438-8.398438-33.898438 1.300781c-8.5 9.199219-8.5 23.398438 0 32.601562-12.601562.796876-22.402343 11.199219-22.402343 23.796876v20.902343l7.800781 3.898438c20.300781 10.101562 44.101562 10.101562 64.402343 0l7.796876-3.898438v-20.902343c0-12.597657-9.796876-23-22.398438-23.796876zm-17.601562-24.203124c4.402343 0 8 3.601562 8 8 0 4.402343-3.597657 8-8 8-4.398438 0-8-3.597657-8-8 0-4.398438 3.601562-8 8-8zm24 59c-15.199219 7.203124-32.796876 7.203124-48 0v-11c0-4.398438 3.601562-8 8-8h32c4.402343 0 8 3.601562 8 8zm0 0" fill="#a83256"/><path d="m143.5 336.179688c18-12.796876 22.300781-37.699219 9.5-55.796876-12.800781-18.101562-37.699219-22.300781-55.800781-9.5-18.097657 12.796876-22.199219 37.796876-9.398438 55.796876 2.597657 3.703124 5.800781 6.902343 9.5 9.5-27.902343 3.601562-48.800781 27.402343-48.902343 55.5v36.902343l11.203124 5.597657c38.296876 19.101562 83.296876 19.101562 121.597657 0l11.199219-5.597657v-36.902343c0-28.199219-20.898438-51.898438-48.898438-55.5zm-47.101562-32.5c0-13.296876 10.703124-24 24-24 13.300781 0 24 10.703124 24 24 0 13.300781-10.699219 24-24 24-13.296876 0-24-10.699219-24-24zm80 115.101562-2.296876 1.199219c-33.800781 16.800781-73.5 16.800781-107.300781 0l-2.300781-1.199219v-27.101562c0-22.097657 17.898438-40 40-40h32c22.101562 0 40 17.902343 40 40zm0 0" fill="#a83256"/><path d="m186 63.882812c9-9.703124 8.398438-24.902343-1.300781-33.902343s-24.898438-8.398438-33.898438 1.300781c-8.5 9.199219-8.5 23.398438 0 32.601562-12.601562.796876-22.402343 11.199219-22.402343 23.796876v20.902343l7.800781 3.898438c20.300781 10.101562 44.101562 10.101562 64.402343 0l7.796876-3.898438v-20.902343c0-12.597657-9.796876-23-22.398438-23.796876zm-17.601562-24.203124c4.402343 0 8 3.601562 8 8 0 4.402343-3.597657 8-8 8-4.398438 0-8-3.597657-8-8 0-4.398438 3.601562-8 8-8zm24 59c-15.199219 7.203124-32.796876 7.203124-48 0v-11c0-4.398438 3.601562-8 8-8h32c4.402343 0 8 3.601562 8 8zm0 0" fill="#a83256"/><path d="m469.398438 196.980469c-15.5-28-45-45.300781-77-45.300781-24.199219 0-47.296876 10-63.898438 27.601562l-95.898438-75.300781c17.699219-35.398438 3.296876-78.5-32.101562-96.199219s-78.5-3.300781-96.199219 32.101562c-17.699219 35.398438-3.300781 78.5 32.097657 96.199219 29.902343 14.898438 66.203124 7.199219 87.402343-18.601562l94.699219 74.402343c-14.699219 22.398438-18.199219 50.398438-9.601562 75.796876l-82.199219 36.300781c-20.097657-38.300781-60.300781-64.5-106.5-64.5-66.300781 0-120.199219 53.902343-120.199219 120.199219 0 66.300781 54.101562 120.203124 120.398438 120.203124 66.203124-.101562 120.101562-54 120.203124-120.203124 0-14.398438-2.601562-28.199219-7.203124-41.097657l82.101562-36.300781c23.601562 42.5 77.101562 57.898438 119.601562 34.300781 42.5-23.5 57.796876-77.101562 34.296876-119.601562zm-301-69.300781c-30.898438 0-56-25.097657-56-56 0-30.898438 25.101562-56 56-56 30.902343 0 56 25.101562 56 56 0 30.902343-25.097657 56-56 56zm-48 335.203124c-56.898438 0-103.199219-46.300781-103.199219-103.203124 0-56.898438 46.300781-103.199219 103.199219-103.199219 56.902343 0 103.203124 46.300781 103.203124 103.199219-.101562 56.800781-46.402343 103.101562-103.203124 103.203124zm272-151.203124c-21.398438 0-41.699219-9.5-55.296876-26l22.5 7.5c21.398438 7.101562 44.398438 7.101562 65.796876 0l22.5-7.5c-13.796876 16.5-34.097657 26-55.5 26zm16-64c13.300781 0 24 10.703124 24 24v2.203124l-12.199219 4.097657c-18.097657 6-37.597657 6-55.699219 0l-12.199219-4.097657v-2.203124c0-13.296876 10.699219-24 24-24zm-32-40c0-8.796876 7.203124-16 16-16 8.800781 0 16 7.203124 16 16 0 8.800781-7.199219 16-16 16-8.796876 0-16-7.199219-16-16zm72 77.203124v-13.203124c-.097657-20.296876-15.398438-37.398438-35.597657-39.597657 13.597657-11.300781 15.5-31.402343 4.300781-45.101562-11.300781-13.597657-31.402343-15.5-45.101562-4.300781-13.699219 11.203124-15.5 31.402343-4.300781 45.101562 1.300781 1.5 2.699219 3 4.300781 4.300781-20.199219 2.199219-35.5 19.199219-35.601562 39.597657v13.203124c-25-30.902343-20.199219-76.300781 10.703124-101.300781 30.898438-25 76.296876-20.199219 101.296876 10.699219 21.300781 26.398438 21.300781 64.199219 0 90.601562zm0 0" fill="#a83256"/></svg>