<?xml version="1.0" standalone="no"?>
<!DOCTYPE svg PUBLIC "-//W3C//DTD SVG 20010904//EN"
 "http://www.w3.org/TR/2001/REC-SVG-20010904/DTD/svg10.dtd">
<svg version="1.0" xmlns="http://www.w3.org/2000/svg"
 width="200.000000pt" height="200.000000pt" viewBox="0 0 200.000000 200.000000"
 preserveAspectRatio="xMidYMid meet">
<metadata>
Created by potrace 1.16, written by Peter Selinger 2001-2019
</metadata>
<g transform="translate(0.000000,200.000000) scale(0.100000,-0.100000)"
fill="#a83256" stroke="none">
<path d="M210 1981 c-14 -27 -14 -1935 0 -1962 10 -19 30 -19 790 -19 760 0
780 0 790 19 7 13 10 337 10 981 0 644 -3 968 -10 981 -10 19 -30 19 -790 19
-760 0 -780 0 -790 -19z m444 -86 c5 -13 -17 -15 -159 -15 l-165 0 0 -880 0
-880 670 0 670 0 0 880 0 880 -165 0 c-142 0 -164 2 -159 15 5 13 35 15 180
15 l174 0 0 -910 0 -910 -700 0 -700 0 0 910 0 910 174 0 c145 0 175 -2 180
-15z m224 -5 c11 -18 23 -20 122 -20 99 0 111 2 122 20 10 16 24 20 70 20 32
0 58 -2 58 -4 0 -1 -5 -17 -11 -35 l-11 -31 -228 0 -228 0 -11 31 c-6 18 -11
34 -11 35 0 2 26 4 58 4 46 0 60 -4 70 -20z m-183 -120 c6 -19 15 -20 305 -20
290 0 299 1 305 20 6 19 15 20 141 20 l134 0 0 -790 0 -790 -580 0 -580 0 0
790 0 790 134 0 c126 0 135 -1 141 -20z"/>
<path d="M756 1440 l-82 -80 -29 30 c-16 16 -37 32 -46 35 -29 10 -59 -12 -59
-43 0 -37 94 -132 131 -132 18 0 51 27 122 98 84 84 98 103 95 127 -2 18 -11
31 -27 37 -20 7 -33 -1 -105 -72z"/>
<path d="M1001 1398 c-9 -25 -4 -49 13 -60 6 -4 103 -8 217 -8 215 0 229 3
229 45 0 42 -13 45 -237 45 -212 0 -214 0 -222 -22z"/>
<path d="M749 1023 l-79 -77 -33 32 c-50 48 -97 39 -97 -19 0 -34 97 -129 132
-129 34 0 218 186 218 221 0 30 -17 49 -43 49 -11 0 -55 -35 -98 -77z"/>
<path d="M1001 978 c-6 -15 -5 -30 4 -43 12 -19 25 -20 220 -23 228 -3 238 0
233 52 l-3 31 -223 3 -223 2 -8 -22z"/>
<path d="M748 603 l-78 -77 -34 33 c-44 43 -89 42 -94 -3 -3 -24 6 -39 54 -87
32 -33 67 -59 78 -59 10 0 62 42 118 97 92 91 99 100 96 133 -3 31 -7 35 -33
38 -26 2 -41 -8 -107 -75z"/>
<path d="M1006 569 c-9 -14 -12 -29 -7 -43 8 -21 13 -21 232 -21 l224 0 3 28
c7 55 -1 57 -229 57 -200 0 -208 -1 -223 -21z"/>
</g>
</svg>
