<?xml version="1.0" standalone="no"?>
<!DOCTYPE svg PUBLIC "-//W3C//DTD SVG 20010904//EN"
 "http://www.w3.org/TR/2001/REC-SVG-20010904/DTD/svg10.dtd">
<svg version="1.0" xmlns="http://www.w3.org/2000/svg"
 width="375.000000pt" height="326.000000pt" viewBox="0 0 375.000000 326.000000"
 preserveAspectRatio="xMidYMid meet">
<metadata>
Created by potrace 1.16, written by Peter Selinger 2001-2019
</metadata>
<g transform="translate(0.000000,326.000000) scale(0.100000,-0.100000)"
fill="#a83256" stroke="none">
<path d="M1688 3240 c-304 -77 -537 -320 -594 -618 -18 -97 -18 -290 1 -391
47 -244 193 -532 416 -816 81 -105 304 -348 350 -384 l27 -21 119 123 c387
398 623 800 674 1149 16 110 6 301 -21 396 -47 166 -148 316 -280 416 -83 63
-138 92 -242 127 -84 29 -107 33 -233 35 -114 3 -154 0 -217 -16z m356 -176
c216 -56 390 -231 446 -450 24 -93 27 -257 6 -354 -58 -273 -269 -631 -541
-917 l-73 -78 -69 74 c-274 298 -464 614 -534 888 -28 111 -30 285 -5 383 86
339 430 542 770 454z"/>
<path d="M1810 2880 c-121 -26 -238 -120 -292 -237 -86 -182 -23 -411 143
-522 86 -58 150 -74 268 -69 119 5 186 33 270 113 222 212 149 582 -138 695
-62 24 -184 34 -251 20z m195 -194 c131 -60 181 -201 118 -327 -88 -172 -322
-182 -430 -18 -35 54 -44 149 -18 214 19 51 97 126 147 142 58 19 129 15 183
-11z"/>
<path d="M490 2357 c0 -3 -110 -402 -245 -888 -135 -486 -245 -890 -245 -899
0 -9 175 -120 459 -292 l459 -276 478 157 479 157 479 -157 478 -157 459 276
c284 172 459 283 459 292 0 14 -487 1781 -493 1786 -3 3 -520 -307 -540 -324
-20 -17 -27 -59 -15 -94 10 -29 53 -58 85 -58 10 0 95 45 188 100 107 63 172
95 174 87 3 -7 93 -329 201 -717 l197 -704 -326 -197 c-270 -164 -327 -195
-333 -181 -3 9 -41 318 -83 687 -43 368 -79 675 -82 682 -8 20 -51 43 -80 43
-35 0 -71 -24 -83 -56 -7 -16 15 -233 70 -706 44 -375 78 -683 77 -685 -2 -1
-168 52 -370 120 l-367 122 0 163 c0 160 0 163 -25 187 -30 31 -82 33 -119 4
l-26 -20 0 -164 0 -164 -367 -120 c-202 -66 -369 -118 -371 -116 -3 2 30 298
72 657 42 359 76 670 76 691 0 78 -91 117 -145 63 -28 -28 -19 37 -110 -760
-41 -357 -77 -651 -79 -653 -2 -2 -147 83 -322 190 -176 106 -326 198 -335
203 -14 8 7 92 181 714 108 388 198 711 201 717 2 8 59 -20 158 -78 85 -50
166 -95 180 -98 75 -21 136 43 108 112 -12 28 -52 55 -263 181 -137 82 -259
156 -271 164 -13 8 -23 12 -23 9z"/>
</g>
</svg>
