<?xml version="1.0" standalone="no"?>
<!DOCTYPE svg PUBLIC "-//W3C//DTD SVG 20010904//EN"
 "http://www.w3.org/TR/2001/REC-SVG-20010904/DTD/svg10.dtd">
<svg version="1.0" xmlns="http://www.w3.org/2000/svg"
 width="820.000000pt" height="860.000000pt" viewBox="0 0 820.000000 860.000000"
 preserveAspectRatio="xMidYMid meet">
<metadata>
Created by potrace 1.16, written by Peter Selinger 2001-2019
</metadata>
<g transform="translate(0.000000,860.000000) scale(0.100000,-0.100000)"
fill="#a83256" stroke="none">
<path d="M3748 8189 c-120 -10 -342 -43 -468 -70 -1043 -222 -1945 -839 -2533
-1735 -312 -476 -519 -1018 -606 -1589 -55 -361 -56 -821 -1 -1185 72 -475
219 -909 451 -1334 349 -638 886 -1185 1519 -1548 515 -295 1088 -473 1660
-518 164 -13 491 -13 657 0 356 27 764 120 1114 253 116 45 348 154 483 228
560 306 1059 765 1413 1299 326 494 535 1036 623 1620 54 362 54 818 0 1180
-76 502 -234 956 -488 1400 -391 682 -981 1239 -1691 1595 -444 222 -955 365
-1445 405 -147 11 -543 11 -688 -1z m623 -2576 l234 -723 789 -2 789 -3 -631
-459 c-348 -252 -635 -462 -637 -466 -3 -4 104 -341 236 -750 132 -408 239
-744 237 -746 -3 -2 -289 203 -637 456 -597 434 -634 460 -655 447 -11 -8
-297 -215 -635 -461 -338 -245 -616 -445 -618 -442 -2 2 104 338 237 746 132
408 238 745 235 749 -2 5 -289 215 -636 467 l-631 459 789 3 789 2 194 598
c106 328 216 667 244 752 48 149 50 154 62 125 6 -16 117 -355 245 -752z"/>
</g>
</svg>
