<?xml version="1.0" standalone="no"?>
<!DOCTYPE svg PUBLIC "-//W3C//DTD SVG 20010904//EN"
 "http://www.w3.org/TR/2001/REC-SVG-20010904/DTD/svg10.dtd">
<svg version="1.0" xmlns="http://www.w3.org/2000/svg"
 width="512.000000pt" height="512.000000pt" viewBox="0 0 512.000000 512.000000"
 preserveAspectRatio="xMidYMid meet">
<metadata>
Created by potrace 1.16, written by Peter Selinger 2001-2019
</metadata>
<g transform="translate(0.000000,512.000000) scale(0.100000,-0.100000)"
fill="#a83256" stroke="none">
<path d="M290 4941 c-96 -30 -195 -117 -238 -209 l-27 -57 0 -320 c0 -317 0
-320 24 -368 35 -71 102 -139 173 -178 l63 -34 1800 0 1800 0 48 24 c71 35
148 111 182 178 l30 58 0 320 0 320 -26 55 c-37 77 -97 141 -171 181 l-63 34
-1785 2 c-982 1 -1796 -2 -1810 -6z m360 -586 l0 -255 -145 0 -145 0 0 255 0
255 145 0 145 0 0 -255z"/>
<path d="M257 3556 c-108 -45 -192 -136 -223 -243 -12 -42 -15 -106 -12 -350
l3 -298 28 -56 c32 -67 103 -136 178 -176 l54 -28 1299 -3 1298 -2 62 57 c177
166 442 294 699 339 105 19 278 23 415 10 l93 -8 -3 253 c-3 250 -3 255 -29
309 -37 77 -97 141 -171 181 l-63 34 -1785 2 -1785 3 -58 -24z m393 -571 l0
-255 -145 0 -145 0 0 255 0 255 145 0 145 0 0 -255z"/>
<path d="M3721 2620 c-450 -57 -843 -372 -995 -798 -65 -182 -85 -439 -51
-638 109 -622 687 -1058 1320 -995 293 29 539 145 746 351 171 169 269 346
330 590 20 83 23 119 23 280 -1 174 -3 192 -32 302 -57 219 -160 397 -321 559
-174 175 -387 289 -623 334 -104 20 -299 27 -397 15z m309 -750 l0 -320 315 0
315 0 0 -145 0 -145 -315 0 -315 0 0 -320 0 -320 -150 0 -150 0 0 320 0 320
-315 0 -315 0 0 145 0 145 315 0 315 0 0 320 0 320 150 0 150 0 0 -320z"/>
<path d="M290 2201 c-95 -29 -195 -117 -238 -209 l-27 -57 0 -320 0 -320 28
-56 c32 -67 103 -136 178 -176 l54 -28 1114 -3 1114 -2 -7 37 c-30 164 -36
224 -37 334 0 184 28 337 93 509 28 72 86 189 117 235 12 17 21 38 21 48 0 16
-63 17 -1192 16 -656 0 -1204 -4 -1218 -8z m360 -586 l0 -255 -145 0 -145 0 0
255 0 255 145 0 145 0 0 -255z"/>
</g>
</svg>
