<?xml version="1.0" standalone="no"?>
<!DOCTYPE svg PUBLIC "-//W3C//DTD SVG 20010904//EN"
 "http://www.w3.org/TR/2001/REC-SVG-20010904/DTD/svg10.dtd">
<svg version="1.0" xmlns="http://www.w3.org/2000/svg"
 width="376.000000pt" height="376.000000pt" viewBox="0 0 376.000000 376.000000"
 preserveAspectRatio="xMidYMid meet">
<metadata>
Created by potrace 1.16, written by Peter Selinger 2001-2019
</metadata>
<g transform="translate(0.000000,376.000000) scale(0.100000,-0.100000)"
fill="#a83256" stroke="none">
<path d="M335 3444 c-50 -18 -102 -67 -126 -119 -18 -38 -19 -97 -19 -1445 0
-1348 1 -1407 19 -1445 10 -22 34 -54 52 -72 71 -67 -34 -63 1619 -63 1653 0
1548 -4 1619 63 18 18 42 50 52 72 18 38 19 97 19 1445 0 1348 -1 1407 -19
1445 -10 22 -34 54 -52 72 -71 67 35 63 -1623 62 -1288 0 -1507 -2 -1541 -15z
m3060 -159 c23 -22 25 -32 25 -115 l0 -90 -1540 0 -1540 0 0 90 c0 83 2 93 25
115 l24 25 1491 0 1491 0 24 -25z m25 -1570 l0 -1216 -25 -24 -24 -25 -1491 0
-1491 0 -24 25 -25 24 0 1216 0 1215 1540 0 1540 0 0 -1215z"/>
<path d="M594 2687 c-35 -31 -38 -82 -5 -109 22 -17 53 -18 542 -18 l518 0 21
22 c25 27 26 69 1 99 l-19 24 -515 3 -515 3 -28 -24z"/>
<path d="M1963 2700 c-12 -5 -26 -18 -32 -29 -8 -13 -11 -321 -11 -985 0 -953
0 -966 20 -986 20 -20 33 -20 614 -20 570 0 595 1 617 19 l24 19 0 972 0 972
-28 24 -28 24 -577 -1 c-317 0 -587 -4 -599 -9z m1085 -1007 l2 -863 -490 0
-490 0 0 865 0 865 488 -2 487 -3 3 -862z"/>
<path d="M602 2323 c-7 -3 -19 -17 -27 -33 -19 -36 -4 -83 31 -99 35 -15 783
-16 818 0 51 23 55 103 7 128 -20 11 -803 15 -829 4z"/>
<path d="M603 1568 c-32 -16 -46 -63 -28 -98 8 -15 22 -30 30 -34 9 -3 247 -6
529 -6 l513 0 21 23 c29 31 28 72 -3 102 l-24 25 -508 -1 c-336 0 -515 -4
-530 -11z"/>
<path d="M589 1182 c-33 -27 -30 -78 5 -109 l27 -23 394 0 394 0 27 23 c35 31
38 82 5 109 -22 17 -49 18 -426 18 -377 0 -404 -1 -426 -18z"/>
</g>
</svg>
